<?xml version="1.0" standalone="no"?>
<!DOCTYPE svg PUBLIC "-//W3C//DTD SVG 20010904//EN"
 "http://www.w3.org/TR/2001/REC-SVG-20010904/DTD/svg10.dtd">
<svg version="1.0" xmlns="http://www.w3.org/2000/svg"
 width="1024.000000pt" height="1024.000000pt" viewBox="0 0 1024.000000 1024.000000"
 preserveAspectRatio="xMidYMid meet">
<metadata>
Created by potrace 1.11, written by Peter Selinger 2001-2013
</metadata>
<g transform="translate(0.000000,1024.000000) scale(0.100000,-0.100000)"
fill="#000000" stroke="none">
<path d="M2648 9813 c0 -5 -2 -12 -3 -18 -2 -5 -3 -15 -4 -21 0 -6 -13 -24
-27 -39 -15 -16 -19 -25 -10 -22 13 5 14 3 3 -16 -6 -12 -16 -25 -20 -28 -4
-3 -9 -16 -10 -27 -1 -12 -4 -22 -8 -22 -6 0 -21 -43 -16 -46 1 -1 -7 -12 -18
-25 -11 -12 -14 -19 -7 -15 11 7 11 4 0 -13 -7 -12 -15 -21 -19 -21 -3 0 -6
-7 -7 -15 -1 -8 -3 -22 -4 -30 -1 -8 -5 -15 -10 -15 -4 0 -8 -9 -8 -19 0 -11
-4 -23 -10 -26 -5 -3 -10 -14 -10 -24 0 -9 -9 -27 -20 -39 -12 -12 -20 -30
-18 -40 2 -9 -2 -16 -8 -15 -7 1 -11 -3 -11 -10 1 -30 -4 -48 -11 -43 -7 4
-11 -9 -14 -51 -1 -7 -6 -11 -12 -10 -6 1 -10 -6 -8 -17 2 -10 -1 -15 -6 -12
-5 3 -9 -4 -8 -17 1 -14 -4 -21 -13 -19 -12 3 -12 1 0 -14 9 -12 9 -15 2 -10
-9 5 -13 0 -13 -14 0 -14 -4 -19 -12 -14 -8 5 -9 2 -5 -9 3 -9 0 -23 -8 -31
-8 -7 -12 -16 -9 -19 4 -3 -1 -16 -10 -29 -9 -12 -16 -30 -16 -40 0 -10 -4
-18 -8 -18 -5 0 -9 -7 -10 -15 -1 -8 -3 -21 -4 -29 -1 -8 -6 -14 -11 -13 -5 1
-11 -6 -12 -16 -2 -10 -10 -29 -19 -42 -9 -13 -16 -36 -16 -50 0 -15 -4 -24
-10 -20 -9 6 -15 -8 -11 -29 1 -5 -5 -16 -14 -26 -8 -9 -12 -20 -8 -23 3 -4 2
-7 -4 -7 -10 0 -25 -39 -22 -56 0 -4 -5 -10 -13 -15 -7 -5 -14 -14 -14 -21 -1
-7 -2 -19 -3 -26 -1 -8 -6 -10 -13 -6 -8 5 -7 0 2 -11 9 -11 10 -16 3 -11 -9
5 -13 1 -13 -13 0 -10 -4 -21 -10 -23 -5 -1 -11 -13 -13 -25 -2 -12 -12 -32
-23 -44 -10 -12 -13 -19 -6 -15 11 7 11 4 0 -15 -7 -13 -17 -27 -21 -30 -5 -3
-8 -10 -8 -15 2 -19 -11 -44 -19 -39 -4 3 -6 -4 -3 -15 3 -11 0 -20 -6 -20 -6
0 -11 -11 -11 -24 0 -13 -7 -29 -15 -36 -8 -7 -13 -16 -10 -20 3 -5 1 -11 -5
-15 -6 -4 -8 -11 -5 -16 4 -5 -1 -12 -9 -15 -9 -3 -16 -10 -16 -16 0 -5 4 -7
9 -4 5 4 4 -5 -2 -18 -7 -13 -15 -22 -19 -20 -3 2 -9 0 -13 -6 -3 -5 -2 -10 4
-10 6 0 8 -7 5 -15 -4 -8 -11 -12 -17 -8 -6 4 -8 0 -4 -10 3 -8 -1 -21 -9 -28
-9 -7 -13 -21 -11 -31 3 -10 1 -18 -4 -18 -5 0 -9 -7 -9 -15 0 -8 -5 -15 -11
-15 -6 0 -9 -9 -6 -20 3 -11 1 -18 -4 -14 -5 3 -9 -4 -9 -16 0 -13 -4 -19 -12
-14 -7 5 -8 3 -4 -5 5 -7 0 -21 -11 -33 -10 -13 -12 -18 -4 -13 9 5 7 -3 -6
-21 -11 -16 -26 -49 -34 -74 -7 -25 -18 -49 -24 -55 -7 -5 -11 -18 -9 -28 1
-9 -2 -15 -7 -11 -8 4 -14 -17 -10 -38 0 -5 -3 -8 -9 -8 -5 0 -10 -12 -10 -27
0 -22 -2 -25 -10 -13 -9 13 -10 13 -11 0 -1 -8 -1 -21 0 -27 1 -7 -4 -13 -10
-13 -7 0 -9 -3 -6 -7 4 -3 -1 -15 -10 -26 -13 -15 -14 -18 -3 -12 13 8 13 7 0
-10 -8 -10 -15 -21 -15 -24 0 -3 -3 -5 -6 -4 -3 1 -6 -3 -6 -10 -1 -22 -8 -41
-20 -55 -7 -7 -9 -20 -6 -30 3 -9 2 -14 -2 -9 -7 6 -29 -39 -38 -78 -1 -5 -8
-16 -15 -23 -7 -8 -10 -18 -7 -23 4 -5 1 -9 -6 -9 -7 0 -9 -3 -6 -7 4 -3 0
-15 -10 -25 -9 -10 -12 -18 -8 -18 4 0 0 -10 -11 -22 -10 -12 -13 -18 -6 -14
6 4 12 2 12 -3 0 -6 -4 -11 -10 -11 -5 0 -10 -9 -10 -20 0 -11 -3 -20 -7 -20
-11 0 -33 -50 -33 -73 0 -10 -4 -15 -10 -12 -9 5 -15 -24 -11 -48 1 -5 -3 -6
-9 -2 -9 5 -15 -15 -11 -37 0 -5 -3 -8 -7 -8 -5 0 -15 -19 -23 -42 -17 -54
-35 -89 -41 -83 -2 3 -5 -2 -6 -10 -1 -8 -3 -22 -4 -30 -1 -8 -5 -15 -10 -15
-4 0 -8 -9 -8 -21 0 -13 -4 -18 -12 -13 -8 5 -7 0 2 -11 9 -11 10 -16 3 -11
-8 4 -13 1 -13 -8 0 -9 -4 -16 -8 -16 -5 0 -9 -6 -9 -12 -1 -26 -9 -43 -28
-61 -11 -10 -14 -16 -7 -12 6 3 12 1 12 -4 0 -6 -5 -11 -11 -11 -5 0 -7 -4 -4
-10 3 -5 1 -10 -5 -10 -6 0 -8 -4 -5 -10 3 -5 2 -10 -2 -10 -5 0 -10 -12 -11
-27 -1 -16 -7 -29 -12 -31 -6 -2 -10 -10 -10 -18 0 -9 -5 -12 -10 -9 -6 4 -10
3 -9 -2 1 -4 1 -20 0 -35 -1 -19 -5 -26 -15 -22 -11 4 -13 0 -9 -15 3 -12 1
-21 -6 -21 -6 0 -11 -9 -11 -19 0 -11 -4 -23 -10 -26 -5 -3 -10 -15 -10 -26 0
-11 -4 -18 -9 -15 -4 3 -8 -4 -7 -17 1 -14 -4 -21 -13 -19 -12 3 -12 1 0 -14
9 -12 9 -15 2 -10 -9 5 -13 1 -13 -11 0 -23 -22 -73 -32 -73 -5 0 -8 -12 -8
-26 0 -14 -4 -23 -10 -19 -6 4 -10 -5 -10 -20 0 -14 -4 -24 -8 -21 -4 2 -9 -5
-9 -16 -1 -12 -7 -24 -13 -28 -7 -4 -11 -10 -11 -14 4 -26 -1 -46 -9 -41 -5 3
-10 -3 -10 -15 0 -12 -4 -19 -8 -16 -5 3 -9 -1 -10 -9 -1 -8 -3 -22 -4 -30 -1
-8 -5 -15 -10 -15 -5 0 -7 -4 -3 -9 3 -5 -2 -16 -10 -24 -8 -9 -15 -22 -15
-29 0 -7 -9 -28 -20 -46 -12 -19 -15 -30 -9 -26 6 4 0 -10 -14 -31 -14 -21
-24 -42 -21 -47 3 -4 1 -8 -4 -8 -5 0 -9 -7 -10 -15 -1 -8 -3 -22 -4 -30 -1
-8 -4 -15 -7 -15 -4 0 -12 -9 -19 -21 -11 -17 -11 -20 0 -14 10 6 11 5 1 -6
-7 -7 -13 -21 -13 -31 0 -10 -4 -18 -8 -18 -4 0 -14 -16 -21 -35 -7 -19 -16
-33 -20 -31 -4 3 -8 -1 -8 -9 0 -8 5 -11 11 -8 6 4 3 -3 -7 -14 -17 -20 -17
-21 7 -37 14 -9 32 -16 40 -16 8 0 18 -5 22 -12 5 -7 3 -8 -6 -3 -9 5 -11 4
-6 -4 4 -6 11 -9 16 -6 5 3 11 1 15 -5 4 -6 11 -8 16 -5 5 4 9 1 9 -4 0 -6 3
-11 8 -10 17 3 51 -14 46 -22 -3 -5 1 -9 9 -9 23 0 117 -46 110 -54 -3 -3 3
-6 15 -6 11 0 24 -5 27 -10 4 -6 10 -8 15 -5 5 3 11 1 15 -5 4 -6 12 -7 18 -4
7 4 9 4 5 -1 -11 -11 23 -34 50 -35 13 0 20 -4 17 -10 -5 -9 15 -15 38 -11 4
0 7 -4 7 -9 0 -6 7 -10 16 -10 8 0 13 -4 10 -9 -3 -5 0 -8 7 -8 20 1 77 -24
77 -35 0 -5 4 -6 10 -3 5 3 10 1 10 -5 0 -6 4 -9 9 -5 5 3 12 1 16 -5 3 -5 15
-10 26 -10 11 0 17 -4 14 -10 -3 -5 3 -10 14 -10 12 0 21 -4 21 -10 0 -5 8
-10 18 -10 11 0 27 -9 38 -21 17 -19 19 -19 31 -3 7 10 13 14 13 8 1 -12 31
67 32 84 1 6 5 12 10 12 5 0 6 5 3 10 -3 6 -1 10 5 10 6 0 8 5 5 10 -3 6 -1
10 5 10 6 0 9 4 5 9 -3 5 0 13 6 16 5 4 8 14 5 22 -4 8 -1 11 5 8 6 -4 9 1 7
11 -2 11 2 18 9 17 7 -2 12 0 12 5 -4 22 2 42 11 37 5 -3 7 0 4 8 -3 8 0 18 5
22 6 3 9 11 6 16 -4 5 -2 9 4 9 6 0 8 7 5 15 -4 8 1 17 10 21 9 3 16 17 16 30
0 13 4 24 10 24 5 0 9 3 8 8 -4 13 13 52 21 48 4 -3 6 8 5 24 -1 18 3 28 10
27 6 -1 10 4 9 11 -2 6 2 12 7 12 5 0 9 3 9 8 -4 24 2 52 11 47 6 -4 10 7 10
27 0 25 3 29 10 18 10 -16 14 -8 11 23 -1 9 3 17 8 17 6 0 10 3 10 8 -3 20 2
43 9 38 4 -2 9 5 9 17 1 12 7 23 13 25 5 2 10 15 10 28 0 15 4 23 10 19 6 -4
10 -3 9 2 -4 24 2 43 13 37 7 -4 8 -3 4 5 -4 6 -2 18 4 26 6 8 8 20 4 26 -4 7
-3 9 3 6 12 -8 26 20 17 34 -3 5 0 9 5 9 6 0 11 9 11 20 0 11 5 20 12 20 6 0
8 3 5 7 -4 3 0 14 9 24 9 10 14 25 11 34 -4 9 -1 15 8 15 8 0 15 5 15 11 0 5
-6 7 -12 3 -7 -4 -5 1 4 12 9 10 17 24 19 29 4 23 12 35 20 30 4 -3 6 4 4 15
-2 11 0 20 5 20 5 0 7 9 5 20 -2 11 0 18 6 15 5 -4 9 5 9 19 0 14 3 26 8 26 4
0 13 9 20 21 11 16 11 19 1 13 -7 -4 -3 6 9 23 12 17 19 33 15 37 -3 3 -2 6 4
6 6 0 9 8 6 19 -3 11 2 21 11 24 9 4 16 14 16 23 0 10 8 26 18 37 9 11 12 17
5 14 -8 -5 -8 -1 0 18 7 14 16 25 20 25 5 0 6 4 2 9 -3 5 1 15 8 23 7 7 13 22
13 33 0 11 5 19 10 18 6 -1 11 3 11 10 1 22 8 41 20 55 7 7 10 18 7 26 -3 7 2
19 11 26 8 7 15 18 15 25 0 6 7 12 15 12 8 0 12 -4 9 -9 -4 -5 0 -9 7 -7 8 1
21 1 29 0 13 -1 13 -2 0 -11 -12 -8 -9 -10 13 -10 16 0 35 -7 44 -16 9 -8 22
-13 30 -10 8 3 11 1 8 -4 -3 -6 1 -10 10 -10 10 0 13 -5 9 -12 -4 -7 -3 -8 5
-4 6 4 25 -2 41 -14 17 -12 30 -16 30 -10 0 6 12 -1 27 -15 25 -23 43 -30 66
-26 5 1 6 -3 2 -9 -5 -9 15 -15 38 -11 5 1 6 -3 2 -9 -3 -5 -1 -10 4 -10 22 0
26 -2 43 -17 9 -8 22 -12 29 -7 8 4 10 3 5 -4 -4 -7 -1 -12 9 -12 14 0 15 -86
13 -949 -2 -569 -6 -947 -12 -944 -5 4 -5 0 0 -8 5 -8 9 -79 10 -158 0 -127 3
-145 19 -157 10 -7 22 -11 26 -8 5 3 9 1 9 -4 0 -8 32 -22 48 -21 1 0 10 -7
18 -16 9 -8 21 -15 29 -15 7 0 16 -6 18 -12 4 -10 6 -10 6 0 1 10 4 10 15 0 8
-7 11 -17 8 -22 -3 -5 2 -7 11 -3 10 3 17 2 17 -3 0 -5 7 -7 15 -4 8 4 15 1
15 -5 0 -6 6 -11 14 -11 7 0 19 -7 26 -15 7 -8 16 -12 22 -9 5 3 17 -2 26 -13
9 -10 26 -20 37 -21 11 -2 22 -8 23 -13 2 -5 11 -9 20 -9 10 0 26 -7 36 -15
10 -8 23 -12 29 -8 6 3 8 2 5 -3 -3 -5 0 -14 7 -21 11 -10 15 -10 18 0 4 9 6
9 6 0 1 -7 6 -13 12 -13 5 0 7 6 4 13 -4 6 1 3 10 -8 9 -11 20 -20 26 -20 5 0
13 -4 17 -10 4 -5 13 -11 21 -13 8 -2 27 -12 42 -23 15 -10 34 -19 42 -19 9 0
19 -5 22 -10 4 -6 11 -8 16 -5 5 4 9 2 9 -4 0 -6 11 -13 25 -17 13 -3 29 -12
36 -20 6 -8 15 -11 20 -8 5 3 9 0 9 -5 0 -6 12 -11 28 -11 22 0 24 -2 12 -11
-13 -9 -13 -10 0 -6 8 2 22 1 31 -4 13 -6 15 0 15 39 1 26 -4 50 -10 54 -7 5
-6 8 3 8 11 0 11 3 0 17 -10 11 -10 14 -1 9 9 -5 12 3 12 28 0 22 -5 36 -12
36 -9 0 -8 4 2 10 13 8 13 13 2 31 -8 11 -9 19 -4 15 13 -8 11 317 -3 326 -6
5 -5 8 4 8 11 0 11 3 0 17 -10 11 -10 14 -1 9 9 -5 12 3 12 28 0 22 -5 36 -12
36 -9 0 -8 4 2 10 13 8 13 13 2 31 -8 11 -9 19 -4 15 5 -3 9 46 8 124 -1 84 2
130 9 130 6 0 6 3 -1 8 -6 4 -10 30 -8 62 1 31 -3 61 -9 69 -9 12 -9 13 0 8
10 -6 13 128 13 619 0 345 2 630 5 632 2 2 24 5 48 6 25 0 43 4 41 8 -2 4 5 6
16 5 11 -1 20 -6 20 -12 0 -6 4 -5 8 2 4 6 19 13 34 15 15 2 30 7 34 11 4 4
12 7 18 7 6 0 5 -4 -3 -9 -10 -7 -7 -9 12 -8 14 1 23 5 21 8 -6 11 20 17 52
12 22 -3 26 -2 14 6 -12 8 -6 11 25 12 22 1 44 1 48 0 5 -1 5 4 1 10 -5 8 2
10 24 7 26 -4 29 -2 20 9 -8 10 -7 12 5 8 8 -4 18 -1 22 5 4 6 16 8 27 4 14
-4 18 -2 14 5 -7 10 5 15 30 12 6 -1 19 8 29 19 10 11 29 20 42 20 14 0 21 4
18 10 -3 6 1 10 10 10 9 0 23 7 32 15 8 8 20 12 26 8 7 -3 9 -2 4 2 -9 11 43
46 56 38 6 -3 7 -1 4 4 -4 6 5 19 20 28 36 24 183 172 183 185 0 5 9 14 20 20
11 6 20 21 21 33 0 21 1 21 9 2 8 -18 9 -17 9 8 1 16 5 26 11 22 6 -3 10 0 10
8 0 7 9 23 19 34 11 12 17 24 14 27 -4 3 -1 6 6 6 7 0 10 4 7 9 -3 5 1 11 9
15 9 3 12 12 8 22 -4 10 -2 15 3 11 6 -3 16 3 23 15 8 13 9 18 1 13 -7 -4 -7
1 2 14 7 12 16 21 20 21 5 0 8 9 8 20 0 11 5 20 10 20 6 0 10 9 10 20 0 11 5
20 10 20 6 0 10 9 10 20 0 11 5 20 11 20 5 0 8 4 5 8 -3 5 2 21 10 36 7 16 14
35 14 42 0 8 4 14 10 14 5 0 9 3 8 8 -1 4 4 20 10 35 7 16 12 35 12 43 0 10 5
12 13 8 7 -5 6 0 -3 11 -12 15 -12 17 -1 10 11 -6 13 -4 8 8 -3 9 0 23 8 31
11 11 12 16 2 19 -9 4 -9 6 1 6 6 1 12 10 12 22 0 11 5 30 11 41 9 16 8 19 -3
13 -10 -6 -11 -5 0 6 6 7 12 28 12 45 0 18 5 36 10 39 8 5 7 12 -2 23 -7 9 -8
13 -2 9 13 -8 13 -12 14 203 1 163 -2 239 -12 255 -11 18 -13 60 -4 74 7 10 5
13 -5 9 -10 -4 -15 5 -17 35 -1 23 -7 46 -12 52 -6 7 -7 15 -3 18 3 4 1 13 -5
20 -7 8 -9 17 -5 20 3 4 1 7 -5 7 -7 0 -11 3 -11 8 4 21 -2 53 -8 49 -5 -3 -9
8 -10 24 -1 16 -8 39 -15 51 -7 13 -11 29 -9 37 1 7 -2 10 -8 6 -7 -3 -11 2
-11 14 0 12 -5 21 -12 21 -6 0 -8 3 -5 7 4 3 0 17 -9 31 -11 17 -12 22 -3 17
8 -5 6 1 -4 12 -9 11 -14 23 -10 27 4 4 0 4 -10 0 -13 -5 -16 -2 -11 10 3 9 1
16 -5 16 -6 0 -11 9 -11 20 0 11 -4 20 -10 20 -5 0 -10 5 -10 11 0 17 -46 79
-54 72 -4 -4 -4 0 0 10 3 10 1 17 -5 17 -6 0 -32 29 -58 65 -25 35 -51 61 -56
58 -6 -4 -8 0 -4 11 4 9 3 15 -2 11 -5 -3 -18 6 -29 20 -11 13 -23 21 -27 17
-5 -4 -5 1 -2 11 4 10 1 17 -7 17 -7 0 -21 9 -31 20 -10 11 -24 20 -32 20 -7
0 -13 7 -13 15 0 9 -6 12 -15 8 -10 -3 -15 0 -13 8 2 8 -3 13 -11 11 -8 -2
-11 3 -8 12 4 10 1 13 -7 10 -7 -3 -19 2 -26 10 -7 9 -16 13 -21 10 -5 -3 -9
1 -9 9 0 10 -7 14 -22 10 -19 -4 -20 -3 -8 6 13 9 12 11 -6 11 -11 0 -30 9
-42 20 -12 12 -22 18 -22 14 0 -3 -6 -1 -13 5 -8 6 -17 8 -20 4 -4 -3 -7 -2
-7 4 0 6 -31 26 -70 44 -38 17 -67 36 -64 40 3 5 -2 6 -10 3 -9 -3 -16 -1 -16
6 0 6 -4 8 -10 5 -5 -3 -10 -1 -10 5 0 7 -7 10 -15 6 -8 -3 -15 -1 -15 5 0 6
-4 7 -10 4 -5 -3 -10 -3 -10 2 0 9 -48 33 -68 33 -7 0 -10 5 -7 10 5 9 -15 15
-37 11 -5 0 -8 4 -8 9 0 6 -7 10 -15 10 -8 0 -15 4 -15 10 0 5 -3 9 -7 9 -21
-3 -34 2 -28 11 4 6 3 9 -2 8 -17 -4 -53 14 -47 24 4 7 2 8 -4 4 -7 -4 -18 -4
-24 1 -7 4 -20 8 -28 10 -8 1 -19 8 -25 16 -5 7 -16 12 -22 10 -7 -3 -16 2
-19 11 -3 9 -10 14 -14 11 -10 -6 -61 20 -55 28 3 4 2 5 -2 2 -3 -3 -17 2 -31
11 -17 11 -22 12 -17 3 5 -8 -4 -2 -19 13 -16 15 -32 25 -37 22 -5 -3 -16 2
-25 10 -8 9 -22 16 -30 16 -8 0 -14 5 -14 12 0 6 -3 8 -7 5 -3 -4 -15 0 -25
10 -14 13 -18 13 -18 2 0 -12 -2 -12 -9 0 -5 8 -17 16 -26 17 -9 1 -25 10 -35
19 -24 21 -109 65 -127 65 -7 0 -13 5 -13 11 0 5 -4 8 -9 4 -6 -3 -14 2 -19
11 -5 9 -12 15 -16 13 -12 -4 -76 24 -76 33 0 4 -7 8 -15 8 -8 0 -15 4 -15 8
0 5 -7 9 -15 10 -8 1 -22 3 -30 4 -8 1 -12 5 -9 10 3 4 -2 8 -11 8 -9 0 -13 4
-10 10 3 5 0 7 -8 4 -8 -3 -20 2 -27 11 -7 8 -21 15 -32 15 -10 0 -17 4 -14 9
3 4 -2 8 -12 8 -9 0 -26 1 -37 2 l-20 2 20 9 c18 8 17 9 -8 9 -16 1 -26 5 -22
11 3 5 0 7 -8 4 -8 -3 -20 2 -27 11 -13 15 -49 21 -52 8z m527 -1293 c9 0 13
-4 10 -10 -3 -5 3 -10 14 -10 12 0 21 -4 21 -10 0 -5 3 -9 8 -9 21 4 32 -2 26
-13 -4 -7 -4 -10 0 -6 4 3 29 -5 56 -18 26 -13 53 -24 60 -24 6 0 8 -4 5 -10
-3 -5 -1 -10 4 -10 6 0 11 6 11 13 1 6 6 3 13 -8 7 -11 18 -21 25 -22 6 -2 18
-4 25 -5 6 -2 18 -11 25 -20 7 -10 24 -18 38 -18 14 0 22 -4 19 -10 -3 -5 -3
-10 2 -11 26 -2 47 -9 52 -16 3 -4 13 -9 21 -11 8 -2 22 -10 31 -18 8 -8 23
-14 33 -14 10 0 14 -5 10 -12 -4 -6 -3 -8 4 -4 6 3 26 -2 45 -13 19 -11 38
-17 41 -14 3 4 6 1 6 -5 0 -7 7 -12 16 -12 8 0 13 -4 10 -8 -2 -4 5 -9 17 -9
12 -1 27 -9 33 -17 6 -9 14 -13 17 -9 4 3 7 1 7 -6 0 -7 5 -9 10 -6 6 3 10 -2
10 -11 0 -10 3 -15 6 -12 5 6 54 -38 53 -48 0 -3 10 -14 23 -24 13 -11 19 -19
13 -20 -5 0 1 -7 13 -16 12 -8 20 -20 17 -25 -4 -5 -1 -9 4 -9 6 0 11 -7 11
-16 0 -8 5 -12 10 -9 6 4 10 3 9 -2 -5 -27 2 -53 13 -47 8 5 9 2 5 -9 -3 -9
-2 -19 3 -22 4 -3 7 -13 6 -23 -2 -9 1 -20 6 -23 6 -4 10 -23 10 -43 0 -20 3
-34 7 -32 9 6 8 -36 -2 -51 -5 -8 -3 -13 5 -13 10 0 10 -2 -1 -9 -8 -5 -9 -11
-3 -15 6 -4 8 -16 6 -29 -3 -12 -7 -33 -10 -47 -8 -50 -10 -55 -18 -69 -6 -9
-5 -12 2 -7 6 3 4 -7 -4 -24 -9 -16 -12 -35 -8 -41 4 -8 3 -9 -4 -5 -11 6 -17
-12 -13 -36 0 -5 -4 -8 -9 -8 -6 0 -10 -9 -10 -20 0 -11 -5 -20 -11 -20 -5 0
-7 -4 -4 -10 3 -5 -1 -10 -10 -10 -9 0 -13 -4 -10 -10 3 -5 2 -10 -4 -10 -6 0
-7 -7 -4 -17 4 -11 3 -14 -5 -9 -7 4 -12 1 -12 -7 0 -8 -7 -18 -16 -21 -9 -4
-14 -9 -12 -12 8 -7 -77 -94 -91 -94 -7 0 -9 -4 -6 -10 3 -5 -1 -10 -9 -10 -9
0 -16 -4 -16 -10 0 -5 -10 -10 -22 -10 -19 0 -20 -2 -8 -10 13 -8 12 -10 -5
-11 -11 -1 -23 -1 -27 0 -5 0 -8 -3 -8 -8 0 -14 -44 -21 -52 -8 -5 8 -8 7 -8
-5 0 -17 -16 -23 -49 -19 -7 2 -11 -1 -8 -6 3 -5 -21 -8 -53 -8 -32 0 -56 3
-54 6 3 6 -36 11 -85 11 -19 0 -21 2 -10 10 10 7 7 8 -13 5 -17 -2 -25 0 -21
6 4 6 0 8 -11 4 -9 -4 -15 -3 -12 1 3 5 -11 14 -30 21 -20 7 -32 17 -28 23 5
7 1 9 -9 5 -9 -3 -19 -2 -23 4 -3 6 -13 8 -21 5 -9 -4 -11 -2 -7 6 5 8 1 9
-12 4 -10 -4 -15 -4 -12 0 10 10 -15 32 -30 26 -8 -3 -17 0 -21 5 -3 6 -23 20
-44 32 -21 12 -35 16 -31 9 5 -7 -5 -3 -20 10 -16 12 -33 22 -39 22 -6 0 -18
7 -28 16 -15 14 -34 21 -62 23 -5 1 -5 6 -1 13 5 7 2 9 -8 5 -9 -3 -20 -1 -25
4 -6 6 -36 23 -66 38 -31 16 -54 30 -51 33 2 3 -6 5 -18 4 -14 -1 -22 4 -20
12 1 8 -2 11 -7 8 -10 -6 -67 20 -76 35 -4 5 -13 9 -21 9 -9 0 -22 6 -30 14
-12 13 -12 17 2 30 8 9 12 16 8 16 -4 0 1 10 12 22 12 13 13 18 4 13 -11 -6
-10 -3 3 12 9 11 14 23 10 26 -3 4 -1 7 5 7 7 0 11 3 11 8 -4 21 2 32 14 26 7
-5 6 0 -3 11 -12 15 -12 17 -1 10 11 -6 13 -4 8 8 -3 8 3 25 14 38 15 17 17
24 7 31 -10 5 -8 8 5 8 15 0 22 18 18 43 -1 5 3 6 9 2 5 -3 10 3 10 14 0 10 4
21 9 23 5 2 11 14 13 28 1 14 9 31 16 38 7 8 10 18 7 23 -4 5 -1 9 4 9 6 0 11
11 11 24 0 14 5 28 10 31 6 4 7 11 4 17 -4 6 -2 8 4 4 6 -3 13 6 17 24 4 17
11 28 15 25 5 -3 7 3 5 15 -2 11 1 22 6 25 5 4 6 11 3 17 -4 7 -2 8 4 4 12 -7
15 1 15 36 0 10 4 15 8 12 5 -3 9 4 9 15 0 12 5 21 10 21 6 0 10 12 10 26 0
17 4 23 12 18 8 -5 9 -2 5 9 -4 12 -1 17 11 18 10 0 12 3 5 6 -10 3 -10 9 0
26 7 12 14 24 17 27 3 3 7 16 8 30 2 14 8 27 13 28 5 2 9 10 9 18 0 9 4 13 9
9 6 -3 8 3 6 14 -2 11 4 30 14 43 10 13 17 31 16 40 -2 10 2 16 8 15 7 -1 11
6 9 16 -3 17 -1 17 27 3 16 -9 37 -16 46 -16z"/>
<path d="M7326 6648 c3 -4 -2 -8 -10 -8 -9 0 -16 -5 -16 -11 0 -5 -4 -8 -9 -5
-5 3 -11 -1 -15 -9 -3 -8 -15 -15 -26 -15 -11 0 -20 -4 -20 -10 0 -5 -7 -10
-15 -10 -8 0 -15 -5 -15 -11 0 -5 -4 -8 -9 -5 -5 3 -19 -3 -32 -13 -13 -10
-28 -20 -34 -21 -26 -6 -34 -13 -29 -21 3 -5 -7 -9 -21 -9 -15 0 -24 -4 -20
-10 3 -5 1 -10 -4 -10 -22 0 -26 -2 -43 -17 -10 -9 -18 -13 -18 -8 0 4 -9 -3
-21 -16 -11 -13 -18 -18 -14 -11 3 7 -10 1 -30 -12 -20 -14 -45 -28 -56 -31
-11 -4 -16 -11 -13 -17 5 -8 1 -9 -10 -5 -10 4 -19 1 -22 -8 -4 -8 -10 -12
-15 -9 -5 3 -9 0 -9 -6 0 -6 -4 -9 -9 -5 -5 3 -13 0 -17 -6 -3 -6 -29 -21 -56
-34 -28 -13 -44 -25 -36 -28 11 -5 -14 -11 -33 -9 -4 1 -18 -9 -32 -22 -13
-12 -32 -22 -40 -20 -9 1 -16 -1 -16 -4 3 -22 -2 -32 -13 -26 -7 4 -6 -1 3
-12 18 -21 33 -55 31 -66 -1 -5 2 -8 6 -8 5 0 14 -16 22 -35 8 -19 18 -35 22
-35 5 0 8 -6 6 -13 -2 -6 8 -27 22 -46 13 -19 17 -31 9 -26 -7 4 -4 -3 9 -17
13 -14 20 -32 17 -40 -4 -9 -1 -19 6 -24 8 -5 10 -3 4 6 -5 9 -4 11 3 6 7 -4
12 -15 12 -26 0 -10 6 -20 14 -23 9 -4 12 -14 9 -28 -4 -15 -3 -20 5 -15 8 5
12 0 12 -12 0 -11 7 -25 15 -32 8 -7 13 -15 10 -19 -2 -4 7 -19 20 -33 14 -15
20 -28 14 -30 -6 -2 -1 -15 11 -31 12 -15 18 -32 14 -38 -4 -8 -3 -9 4 -5 8 4
12 0 12 -11 1 -23 25 -55 35 -45 5 4 6 0 2 -9 -3 -9 0 -22 6 -28 6 -6 7 -11 2
-11 -5 0 0 -7 11 -16 10 -8 13 -12 5 -8 -7 4 -4 -7 9 -24 12 -16 19 -35 15
-41 -4 -7 -1 -10 7 -9 8 2 12 -4 10 -16 -2 -11 1 -15 7 -11 7 4 11 -4 11 -18
0 -14 7 -27 15 -31 8 -3 15 -13 15 -22 0 -9 9 -27 20 -41 11 -14 17 -29 14
-34 -3 -5 0 -9 5 -9 6 0 11 -6 11 -13 0 -19 24 -67 33 -67 5 0 6 -4 2 -10 -3
-5 3 -18 13 -28 10 -10 16 -24 14 -32 -3 -8 0 -10 7 -5 8 5 11 1 9 -11 -2 -11
2 -18 9 -17 7 2 10 -6 8 -17 -2 -11 1 -22 6 -25 5 -4 7 -11 3 -16 -3 -5 0 -8
6 -7 7 2 14 -6 16 -17 1 -11 11 -25 20 -32 14 -10 14 -13 3 -13 -12 0 -12 -2
1 -10 8 -5 15 -14 15 -20 0 -6 7 -15 15 -20 12 -8 12 -10 1 -10 -11 0 -10 -4
4 -20 9 -10 15 -26 11 -35 -3 -9 -2 -13 4 -10 6 3 10 1 10 -5 0 -6 5 -8 12 -4
6 4 8 3 5 -3 -9 -14 17 -65 28 -55 5 4 5 -1 2 -10 -3 -10 1 -24 9 -32 8 -9 15
-18 14 -21 -1 -21 2 -25 13 -19 6 4 9 3 4 -1 -4 -5 0 -19 8 -32 9 -13 12 -23
9 -23 -4 0 1 -9 10 -19 10 -11 15 -24 12 -29 -3 -6 0 -12 8 -15 8 -3 17 -19
21 -36 3 -16 13 -35 21 -42 8 -6 14 -19 14 -29 0 -10 7 -23 15 -30 9 -7 14
-19 11 -27 -3 -8 -1 -11 4 -8 6 3 10 -1 10 -9 0 -9 5 -16 11 -16 5 0 8 -4 5
-9 -3 -4 1 -17 9 -27 8 -10 15 -26 15 -35 0 -9 7 -22 15 -29 9 -7 14 -19 11
-27 -3 -8 -1 -11 4 -8 6 3 10 -1 10 -9 0 -9 5 -16 10 -16 6 0 9 -3 9 -7 -4
-23 2 -43 11 -38 6 3 10 -2 10 -12 0 -11 4 -23 9 -29 17 -17 62 -104 54 -104
-4 0 -3 -4 2 -8 11 -8 50 -86 60 -119 3 -13 11 -23 16 -23 6 0 7 -5 4 -10 -3
-6 1 -13 9 -16 9 -3 13 -10 10 -15 -6 -11 20 -51 28 -43 3 3 6 -1 5 -8 -1 -32
4 -49 13 -43 6 3 10 1 10 -6 0 -21 43 -109 53 -109 5 0 6 -7 3 -16 -4 -11 1
-22 15 -32 17 -11 18 -16 8 -23 -11 -7 -10 -9 5 -9 11 0 16 -5 13 -14 -3 -8 6
-27 21 -42 15 -15 22 -24 15 -21 -8 5 -8 1 0 -17 7 -13 16 -22 21 -19 5 4 6 1
2 -6 -8 -13 -20 -8 -53 22 -12 11 -27 16 -34 12 -8 -6 -10 -4 -4 5 6 10 4 12
-8 7 -12 -4 -14 -2 -10 10 5 12 2 15 -10 10 -11 -4 -17 -1 -17 9 0 8 -4 13 -9
10 -4 -3 -19 6 -32 20 -12 13 -29 22 -35 20 -7 -3 -15 2 -18 10 -3 8 -13 14
-21 14 -9 0 -14 4 -11 9 6 10 -22 26 -53 30 -5 0 -13 10 -16 22 -4 11 -9 18
-12 15 -6 -6 -95 53 -101 67 -2 4 -8 5 -13 1 -5 -3 -9 0 -9 6 0 7 -7 9 -16 6
-8 -3 -13 -2 -10 2 3 5 -4 16 -15 25 -10 9 -19 13 -19 9 0 -4 -7 1 -15 12 -7
10 -18 15 -24 11 -6 -3 -11 1 -11 9 0 9 -9 16 -21 16 -11 0 -18 4 -15 9 5 8
-13 20 -29 21 -3 0 -11 4 -18 10 -40 33 -107 80 -116 80 -6 0 -11 5 -11 10 0
6 -6 10 -14 10 -8 0 -16 5 -18 11 -2 5 -11 11 -20 13 -10 1 -21 6 -25 11 -4 4
-1 5 7 1 8 -4 4 1 -10 12 -13 11 -28 18 -31 16 -4 -2 -16 6 -26 19 -10 13 -27
23 -37 21 -10 -1 -15 0 -12 3 10 10 -15 33 -35 33 -11 0 -19 7 -19 15 0 8 -4
16 -10 16 -5 1 -15 2 -20 3 -6 0 -15 8 -20 16 -5 8 -10 11 -10 5 0 -5 -5 -2
-11 8 -5 9 -16 17 -23 17 -8 0 -17 7 -20 16 -3 8 -10 12 -16 9 -5 -3 -10 -2
-10 3 0 9 -50 37 -62 34 -4 -1 -5 5 -2 13 5 11 2 13 -10 9 -9 -3 -16 -1 -16 5
0 6 -5 11 -11 11 -6 0 -29 15 -51 34 -22 19 -46 32 -54 29 -9 -3 -14 0 -12 8
2 8 -4 13 -14 13 -10 -1 -16 3 -15 9 1 6 -7 15 -18 22 -57 31 -84 53 -77 60 4
5 1 5 -5 1 -8 -4 -24 4 -39 19 -14 14 -29 23 -34 20 -4 -2 -14 3 -21 12 -12
14 -12 16 0 8 10 -5 12 -4 7 4 -4 6 -11 9 -17 6 -11 -7 -81 39 -72 48 3 4 0 7
-8 7 -9 0 -25 9 -37 20 -12 11 -27 20 -35 20 -7 0 -23 11 -35 25 -12 14 -28
25 -36 25 -8 0 -16 7 -20 15 -3 8 -12 15 -21 15 -8 0 -15 5 -15 10 0 6 -5 10
-11 10 -6 0 -17 7 -26 15 -8 8 -19 12 -25 9 -7 -4 -8 -2 -4 4 7 11 -6 17 -27
13 -5 -1 -6 3 -3 8 5 8 -13 20 -29 20 -3 1 -17 13 -31 28 -14 16 -23 21 -19
13 4 -8 -5 -3 -18 12 -14 15 -27 25 -30 22 -2 -2 -10 2 -17 11 -7 8 -18 15
-26 15 -7 0 -20 10 -29 23 -8 12 -19 21 -23 21 -4 -1 -16 2 -27 7 -11 4 -15 8
-10 8 6 1 -3 10 -19 20 -17 11 -34 17 -39 14 -6 -4 -7 -1 -2 7 6 10 4 12 -8 7
-11 -4 -17 -1 -17 8 0 9 -9 15 -22 15 -12 0 -19 3 -15 6 8 9 -26 41 -39 37 -7
-3 -24 8 -38 24 -14 15 -26 24 -26 19 0 -5 -8 1 -19 12 -10 12 -26 22 -35 22
-10 0 -14 4 -11 10 3 6 -1 7 -9 4 -11 -4 -16 0 -16 10 0 9 -7 16 -15 16 -8 0
-15 5 -15 11 0 5 -4 8 -9 5 -5 -3 -11 1 -15 9 -3 8 -12 15 -21 15 -8 0 -15 5
-15 12 0 6 -3 8 -6 5 -4 -4 -15 3 -25 15 -11 11 -19 18 -19 14 0 -7 -44 25
-84 62 -11 9 -16 11 -11 4 6 -11 3 -11 -13 -1 -12 7 -18 17 -16 21 5 7 -10 12
-28 9 -5 0 -8 3 -8 9 0 5 -6 10 -13 10 -7 0 -19 9 -27 20 -13 18 -16 19 -38 4
-18 -12 -22 -12 -17 -3 4 8 -2 4 -14 -8 -12 -13 -33 -26 -46 -29 -14 -3 -22
-10 -19 -15 3 -5 -4 -9 -15 -9 -12 0 -21 -4 -21 -9 0 -5 -23 -20 -50 -32 -28
-12 -50 -27 -50 -31 0 -5 -4 -7 -9 -4 -5 3 -14 -1 -21 -9 -7 -8 -19 -15 -26
-15 -8 0 -14 -4 -14 -10 0 -5 -6 -10 -14 -10 -7 0 -25 -9 -38 -20 -14 -10 -28
-16 -32 -13 -3 3 -6 1 -6 -6 0 -7 -4 -9 -10 -6 -5 3 -10 1 -10 -4 0 -6 -7 -11
-15 -11 -8 0 -15 -5 -15 -11 0 -5 -4 -8 -9 -4 -6 3 -14 -2 -19 -10 -5 -9 -15
-18 -23 -20 -38 -9 -59 -18 -59 -27 0 -5 -5 -6 -10 -3 -6 4 -9 1 -8 -7 2 -7
-7 -14 -19 -16 -13 -2 -23 -8 -23 -13 0 -6 -4 -8 -9 -5 -4 3 -21 -6 -37 -19
-16 -14 -37 -25 -47 -25 -10 0 -16 -4 -13 -9 4 -5 1 -11 -6 -13 -8 -3 -1 -27
23 -76 20 -39 39 -68 43 -64 4 4 7 3 6 -3 -5 -25 1 -56 10 -50 10 6 13 -3 13
-38 0 -10 2 -15 5 -12 10 10 32 -18 32 -40 0 -12 7 -28 15 -35 9 -7 14 -19 11
-27 -3 -8 -1 -11 4 -8 9 5 15 -16 11 -38 -1 -5 3 -6 9 -2 5 3 10 -3 10 -14 0
-12 4 -21 9 -21 5 0 11 -9 14 -20 8 -31 9 -33 29 -54 9 -10 15 -23 12 -28 -3
-4 2 -15 11 -24 9 -9 14 -23 11 -31 -3 -8 -1 -11 4 -8 6 3 10 1 10 -5 0 -6 7
-18 15 -27 8 -8 13 -19 10 -24 -4 -5 -1 -9 4 -9 6 0 11 -7 11 -15 0 -17 20
-56 33 -66 5 -3 8 -9 8 -13 -3 -19 0 -27 7 -22 8 5 10 -1 14 -43 1 -11 7 -19
12 -18 5 1 12 -7 14 -18 2 -11 13 -31 23 -44 10 -13 16 -27 13 -32 -3 -5 0 -9
6 -9 6 0 8 -4 5 -10 -3 -5 2 -10 12 -10 14 0 15 -2 5 -9 -11 -7 -10 -9 3 -15
9 -3 14 -10 10 -15 -3 -6 3 -14 12 -20 13 -7 14 -10 4 -11 -11 0 -10 -4 4 -20
9 -10 15 -26 11 -35 -3 -9 -2 -13 4 -10 6 3 10 1 10 -5 0 -6 5 -8 12 -4 7 5 8
3 4 -5 -5 -7 0 -21 10 -32 9 -10 13 -19 8 -19 -5 0 0 -7 10 -15 13 -10 15 -15
6 -15 -10 0 -9 -4 3 -17 8 -10 17 -22 19 -28 2 -5 7 -9 11 -7 5 1 5 -2 2 -8
-4 -6 0 -19 9 -29 9 -10 19 -28 21 -41 2 -12 10 -29 17 -37 7 -8 13 -22 14
-30 2 -8 13 -27 26 -41 13 -14 18 -22 11 -19 -8 5 -8 1 0 -17 7 -13 16 -22 21
-19 5 4 7 -3 4 -15 -4 -14 -1 -25 9 -30 8 -5 14 -12 14 -15 -3 -21 0 -27 9
-22 6 4 9 3 8 -2 -4 -15 25 -82 34 -77 4 3 8 -7 8 -21 0 -15 4 -24 10 -20 6 3
10 -3 10 -14 0 -11 5 -23 10 -26 6 -3 10 -15 10 -26 0 -13 4 -18 12 -13 8 5 9
2 5 -9 -4 -10 -2 -17 4 -17 6 0 8 -7 5 -16 -3 -8 -2 -12 4 -9 6 3 10 -1 10 -9
0 -9 4 -16 8 -16 4 0 8 -10 9 -21 1 -12 9 -29 18 -39 10 -11 14 -24 10 -30 -3
-6 -1 -9 6 -8 7 2 14 -1 14 -7 2 -17 39 -89 50 -97 6 -4 6 -8 2 -8 -5 0 -1 -7
7 -16 9 -8 14 -19 11 -24 -3 -4 2 -13 10 -20 8 -7 15 -21 15 -30 0 -10 5 -20
10 -22 6 -2 12 -13 13 -25 0 -13 7 -25 15 -28 7 -3 10 -9 7 -15 -3 -5 -3 -10
2 -10 13 0 35 -58 27 -71 -5 -9 -2 -10 9 -6 17 6 22 -7 18 -42 -2 -7 2 -10 7
-7 5 3 20 -19 32 -49 12 -30 26 -55 32 -55 5 0 8 -6 7 -13 -3 -25 1 -38 11
-32 9 5 12 -8 9 -31 0 -4 4 -10 11 -14 6 -4 12 -16 13 -28 0 -11 4 -19 9 -16
9 6 29 -31 26 -48 -2 -7 3 -12 9 -11 7 2 12 0 12 -5 -4 -22 2 -42 11 -37 6 4
10 3 9 -2 -4 -24 2 -53 11 -48 9 6 14 -8 11 -27 0 -5 4 -8 9 -8 6 0 10 -8 8
-18 -2 -9 2 -16 9 -15 7 2 10 -3 7 -10 -2 -7 3 -22 13 -32 10 -11 20 -29 21
-40 2 -11 9 -27 16 -35 23 -26 46 -82 39 -93 -3 -6 -1 -7 5 -3 11 6 17 -12 13
-36 0 -5 5 -7 12 -5 7 1 12 -7 11 -20 -1 -13 3 -20 7 -17 5 3 9 -4 9 -14 0
-11 7 -25 15 -32 9 -7 14 -19 11 -27 -3 -8 -1 -11 4 -8 6 3 10 -3 10 -13 0
-11 7 -25 15 -32 9 -7 14 -19 11 -27 -3 -8 -1 -11 4 -8 10 6 37 -52 32 -68 -1
-5 2 -6 8 -2 5 3 10 -1 10 -10 0 -9 10 -31 22 -48 12 -17 16 -27 9 -23 -10 6
-10 3 1 -13 7 -12 16 -21 21 -21 4 0 5 -4 2 -10 -3 -5 -1 -10 5 -10 6 0 8 -4
5 -10 -3 -5 -1 -10 4 -10 6 0 11 -9 11 -21 0 -11 5 -17 10 -14 6 4 10 3 9 -2
-1 -4 -1 -19 0 -33 1 -20 3 -22 11 -10 8 13 10 12 11 -5 1 -11 1 -23 0 -27 0
-5 4 -8 10 -8 6 0 9 -6 6 -14 -3 -8 6 -24 19 -37 15 -14 23 -31 21 -41 -3 -12
0 -18 10 -18 10 0 14 -6 11 -18 -3 -10 0 -23 6 -29 31 -33 38 -46 33 -64 -3
-10 -1 -17 3 -14 12 8 33 -33 24 -47 -4 -7 -3 -8 4 -4 7 4 12 1 12 -9 0 -9 4
-14 8 -11 5 3 9 -1 10 -9 1 -8 3 -22 4 -30 1 -8 4 -12 7 -10 4 2 11 -8 18 -21
8 -18 8 -22 0 -17 -7 3 -2 -5 11 -19 12 -13 20 -27 17 -30 -3 -3 1 -11 10 -18
8 -7 15 -21 15 -32 0 -12 4 -17 12 -12 7 5 9 2 5 -9 -3 -8 1 -21 9 -28 8 -6
12 -14 10 -17 -3 -2 6 -22 20 -44 14 -22 20 -37 12 -33 -7 4 -1 -4 14 -19 15
-14 25 -32 22 -40 -3 -7 2 -16 11 -20 9 -3 14 -10 10 -15 -3 -5 -1 -12 5 -16
5 -3 10 -13 10 -22 0 -9 7 -24 16 -34 8 -9 17 -26 18 -36 3 -19 46 -32 46 -14
0 6 7 11 16 11 8 0 12 5 9 10 -4 6 -3 10 2 9 23 -4 41 3 65 26 15 14 29 25 30
24 8 -5 48 14 48 22 0 5 6 9 14 9 7 0 19 7 26 15 7 9 15 13 17 11 3 -3 15 4
26 15 12 11 26 18 32 15 11 -4 29 12 34 29 1 6 5 12 8 15 4 3 3 -1 -1 -7 -4
-7 -2 -13 3 -13 6 0 11 5 11 12 0 6 3 8 7 5 3 -4 12 1 20 11 8 9 11 11 8 4 -6
-11 -3 -11 13 -1 12 7 18 17 16 21 -3 5 -2 8 3 7 22 -4 43 2 38 11 -3 6 3 10
15 10 12 0 18 4 15 11 -4 6 -1 10 6 8 27 -3 40 1 34 11 -5 9 15 15 37 11 5 0
7 5 5 12 -1 6 4 11 11 10 6 -2 12 2 12 7 0 6 9 10 21 10 13 0 18 4 13 12 -5 8
-2 9 10 5 10 -4 19 -1 23 9 3 8 12 13 19 10 8 -3 13 -1 11 3 -1 5 3 10 8 11 6
1 22 11 38 22 15 11 27 17 27 13 0 -3 6 0 13 6 15 15 20 52 6 43 -6 -3 -9 2
-7 12 2 11 -2 18 -9 17 -6 -1 -10 8 -9 22 2 13 -1 29 -6 37 -7 10 -8 8 -4 -4
9 -29 -4 -20 -15 10 -6 15 -9 27 -8 27 1 0 -10 19 -24 42 -15 24 -27 49 -27
57 0 8 -7 17 -16 20 -8 3 -12 11 -8 17 3 6 -3 24 -15 40 -11 15 -21 35 -21 44
0 8 -4 15 -10 15 -5 0 -10 9 -10 20 0 11 -4 20 -10 20 -5 0 -10 8 -10 19 0 10
-7 24 -15 31 -9 7 -14 19 -11 26 2 7 -4 20 -15 30 -10 9 -19 23 -19 31 0 7 -4
13 -10 13 -5 0 -9 3 -9 8 4 22 -2 42 -11 37 -5 -3 -10 1 -10 9 0 8 -11 35 -25
59 -13 25 -21 47 -18 51 4 3 1 6 -5 6 -7 0 -11 6 -9 13 1 6 -5 11 -13 9 -8 -2
-12 0 -8 3 4 4 2 17 -4 29 -7 11 -11 24 -10 29 1 4 -3 7 -9 7 -5 0 -8 4 -4 9
3 5 1 12 -5 16 -5 3 -10 15 -10 26 0 11 -4 17 -10 14 -5 -3 -10 3 -10 13 0 11
-7 23 -16 26 -9 4 -14 13 -10 21 3 8 1 15 -4 15 -6 0 -9 3 -9 7 4 23 -2 43
-11 38 -6 -4 -10 5 -10 20 0 15 -4 24 -10 20 -5 -3 -10 1 -10 11 0 9 -8 23
-17 30 -10 7 -18 18 -19 26 0 7 -2 21 -2 31 -1 10 -6 15 -12 12 -5 -3 -10 0
-10 8 0 7 -26 66 -59 130 -32 64 -56 118 -53 121 2 3 -3 8 -12 12 -9 3 -16 12
-16 19 0 16 -29 73 -41 80 -5 4 -7 11 -4 16 4 5 0 12 -9 15 -8 3 -12 12 -9 20
3 7 -1 16 -10 19 -8 4 -13 16 -11 31 1 13 -2 22 -7 18 -5 -3 -9 1 -9 9 0 8 -6
17 -14 20 -9 4 -12 14 -9 28 4 15 3 20 -5 15 -8 -5 -12 0 -12 14 0 11 -7 23
-15 26 -8 4 -12 10 -9 16 3 5 -2 18 -11 28 -9 10 -14 24 -9 31 4 8 3 10 -4 5
-7 -4 -12 -1 -12 9 0 9 -4 13 -10 10 -5 -3 -7 0 -4 8 3 8 -2 21 -10 30 -9 9
-16 23 -16 32 0 9 -7 23 -16 32 -8 9 -13 22 -10 30 3 8 1 11 -4 8 -9 -5 -15
16 -11 38 1 5 -3 6 -9 2 -5 -3 -10 1 -10 10 0 10 -5 13 -12 9 -8 -5 -7 0 2 11
9 11 10 16 3 11 -8 -4 -13 -2 -13 4 0 6 -7 18 -15 27 -8 8 -13 19 -10 24 4 5
1 9 -4 9 -6 0 -11 6 -11 14 0 7 -10 26 -22 42 -13 15 -17 25 -11 21 7 -5 6 4
-3 23 -9 16 -19 32 -24 35 -5 3 -6 13 -3 22 4 11 3 14 -5 9 -8 -5 -12 1 -12
17 0 14 -7 28 -16 31 -9 4 -14 13 -10 22 4 9 2 13 -5 8 -7 -4 -10 -1 -7 7 3 8
0 19 -6 26 -29 33 -36 43 -30 43 3 0 1 6 -5 13 -6 8 -8 17 -4 20 3 4 0 7 -7 7
-7 0 -11 3 -7 6 3 4 -1 13 -9 21 -8 8 -12 19 -9 24 4 5 3 9 -2 9 -8 0 -34 52
-34 67 0 4 -10 18 -21 30 -12 13 -18 29 -14 38 3 9 2 13 -4 10 -6 -3 -10 1
-10 10 0 9 -4 13 -10 10 -5 -3 -7 0 -4 8 3 8 -2 20 -11 27 -8 7 -15 21 -15 32
0 10 -4 16 -10 13 -5 -3 -10 1 -10 9 0 8 5 18 10 21 6 3 10 1 10 -4 0 -6 7
-11 15 -11 8 0 15 -4 15 -9 0 -5 14 -14 30 -21 17 -7 30 -16 30 -20 0 -8 52
-34 63 -31 5 1 6 -3 2 -9 -3 -5 1 -10 9 -10 8 0 22 -10 30 -22 9 -12 16 -19
16 -14 0 4 12 -2 26 -13 15 -11 31 -18 37 -14 6 3 7 1 3 -5 -4 -7 -2 -12 3
-12 6 0 20 -9 31 -20 11 -11 27 -20 35 -20 8 0 15 -5 15 -11 0 -5 5 -7 10 -4
6 3 10 0 10 -8 0 -7 16 -19 35 -27 19 -7 32 -17 29 -22 -5 -7 3 -10 22 -7 3 0
13 -8 22 -19 9 -10 25 -21 35 -25 9 -3 17 -11 17 -17 0 -6 4 -9 9 -6 5 3 14
-1 21 -9 7 -8 16 -13 20 -10 4 3 10 -2 13 -10 4 -8 29 -27 56 -43 28 -16 48
-32 43 -36 -4 -4 -2 -7 3 -6 6 1 19 2 30 1 17 -1 18 -3 5 -11 -12 -8 -11 -10
6 -10 11 0 29 -9 39 -20 10 -11 24 -20 31 -20 7 0 20 -10 28 -22 9 -12 16 -18
16 -13 0 6 7 1 15 -9 8 -11 15 -16 15 -12 0 4 13 -2 29 -13 15 -11 31 -17 35
-14 4 4 4 -1 0 -12 -6 -15 -4 -17 10 -12 10 4 19 1 23 -9 3 -8 12 -13 20 -10
8 3 12 2 9 -3 -3 -4 6 -14 19 -21 14 -7 25 -17 25 -22 0 -5 5 -6 11 -3 6 4 17
-2 25 -14 8 -12 22 -21 30 -21 8 0 14 -5 14 -11 0 -5 5 -7 12 -3 8 5 9 2 5
-10 -4 -11 -3 -15 4 -10 6 3 20 -3 32 -14 12 -11 29 -22 37 -24 8 -2 21 -11
28 -20 7 -10 20 -18 28 -18 8 0 12 -4 9 -10 -3 -5 0 -7 8 -4 8 3 17 -2 21 -11
3 -9 10 -13 16 -10 5 3 10 3 10 -2 0 -4 18 -19 40 -32 21 -14 36 -29 33 -35
-3 -6 -3 -8 2 -4 9 9 52 -13 83 -42 12 -11 22 -18 22 -15 0 2 9 -3 20 -13 12
-9 23 -16 26 -14 3 2 14 -6 24 -18 11 -13 24 -19 31 -14 8 4 9 3 5 -4 -4 -7
-1 -12 9 -12 9 0 13 -4 10 -10 -5 -9 15 -15 37 -11 4 0 5 -5 2 -13 -3 -8 0
-17 7 -22 8 -4 10 -3 5 4 -4 7 -2 12 3 12 6 0 11 -4 11 -10 0 -5 7 -10 17 -10
9 0 13 -3 10 -7 -9 -9 24 -32 46 -33 10 0 16 -4 13 -9 -3 -5 1 -12 10 -15 10
-4 13 -2 8 7 -4 6 4 0 19 -15 14 -16 31 -28 37 -28 6 0 9 -4 5 -9 -3 -6 4 -8
15 -6 11 2 18 0 15 -4 -5 -9 13 -20 26 -17 4 0 16 -10 28 -24 11 -14 20 -21
21 -17 0 5 7 1 16 -7 8 -9 20 -14 25 -11 5 4 9 0 9 -7 1 -13 63 -58 81 -58 5
0 9 -4 9 -9 0 -5 9 -13 20 -16 11 -4 34 -18 50 -32 18 -15 37 -23 47 -19 13 5
14 4 3 -9 -10 -13 -9 -15 9 -15 11 0 21 -4 21 -10 0 -5 4 -10 10 -10 8 0 76
-46 118 -81 7 -5 17 -7 22 -4 6 4 10 3 9 -2 -1 -4 -1 -15 0 -23 1 -13 2 -13
11 0 6 10 10 11 10 3 0 -7 8 -13 17 -13 9 0 13 -3 10 -6 -4 -4 8 -14 26 -23
17 -9 31 -22 29 -30 -1 -7 2 -10 7 -7 11 7 62 -18 62 -30 -1 -5 2 -10 7 -10
26 -5 51 -17 47 -24 -3 -4 3 -14 12 -21 13 -11 15 -11 9 -1 -7 11 -4 11 13 0
12 -7 21 -16 21 -20 0 -5 7 -8 16 -8 9 0 12 -5 8 -12 -4 -7 -4 -10 1 -6 5 5
23 -3 41 -17 18 -14 37 -25 43 -25 6 0 11 -8 11 -17 0 -14 2 -15 9 -5 7 11 9
11 14 -2 4 -9 14 -16 22 -16 9 0 14 -4 11 -8 -3 -5 8 -9 24 -10 18 0 29 4 27
11 -1 7 9 11 28 9 23 -2 27 -1 15 7 -13 9 -12 11 3 11 10 0 15 5 12 10 -4 6
-3 10 2 9 22 -4 43 2 38 11 -4 6 5 10 20 10 15 0 24 4 20 10 -3 6 3 10 14 10
12 0 21 5 21 10 0 6 7 10 15 10 8 0 15 5 15 10 0 6 6 10 14 10 7 0 25 9 38 20
14 10 28 16 32 13 3 -3 6 0 6 7 0 7 3 11 6 7 4 -3 13 1 21 9 8 8 19 11 25 8 7
-4 8 -2 4 4 -5 8 1 12 14 12 12 0 18 5 15 10 -3 6 3 10 14 10 12 0 21 5 21 10
0 6 9 10 20 10 11 0 20 5 20 10 0 6 7 10 16 10 8 0 12 5 9 10 -4 6 5 10 20 10
15 0 24 4 20 10 -5 9 15 15 37 11 4 0 5 6 2 14 -5 11 -2 13 10 9 10 -4 24 3
37 17 11 13 17 17 13 9 -5 -8 8 -3 28 12 19 15 38 24 42 21 3 -4 6 5 6 18 0
19 2 21 10 9 7 -12 9 -10 7 7 0 12 -5 19 -9 17 -4 -3 -8 3 -8 14 0 10 -9 27
-20 37 -12 11 -20 31 -20 49 0 24 -3 27 -10 16 -7 -11 -10 -6 -11 20 0 29 -2
31 -9 15 -7 -17 -9 -15 -9 13 -1 19 -7 35 -16 38 -8 4 -12 10 -9 15 3 5 1 9
-3 9 -5 0 -9 10 -10 22 -1 12 -9 26 -18 30 -8 5 -13 13 -10 19 4 5 3 9 -2 9
-9 0 -39 61 -35 73 1 4 -3 7 -9 7 -5 0 -8 4 -5 9 3 4 -1 17 -9 27 -8 10 -15
28 -15 39 0 17 -2 17 -10 5 -8 -13 -10 -12 -11 5 -1 11 -1 25 0 31 1 7 -6 14
-14 18 -9 3 -13 10 -10 16 3 5 2 10 -3 10 -8 0 -23 35 -26 62 -1 3 -5 10 -10
15 -5 5 -6 2 -1 -6 5 -9 4 -12 -3 -7 -7 4 -12 16 -12 27 0 11 -4 17 -10 14 -5
-3 -7 0 -4 8 3 8 -2 22 -12 31 -9 9 -14 20 -10 23 3 3 -3 18 -14 33 -10 14
-20 33 -22 41 -2 8 -6 16 -10 19 -3 3 -8 12 -10 20 -2 8 -10 21 -18 28 -9 8
-10 11 -2 7 11 -6 11 -3 0 14 -7 12 -17 21 -22 21 -4 0 -6 9 -3 21 4 15 2 19
-9 15 -9 -4 -14 1 -14 15 0 12 -9 34 -21 50 -11 16 -17 29 -13 29 4 0 -1 9
-10 19 -10 11 -15 25 -11 30 3 6 2 11 -4 11 -11 0 -41 56 -41 75 0 7 -7 15
-15 19 -8 3 -12 12 -9 20 3 8 0 17 -5 21 -6 3 -8 11 -5 17 4 7 2 8 -4 4 -7 -4
-14 4 -18 21 -10 39 -34 74 -47 66 -6 -3 -7 -1 -3 6 4 6 0 25 -8 42 -9 17 -14
35 -11 39 2 4 -4 15 -15 25 -11 10 -20 27 -20 37 0 11 -4 16 -10 13 -6 -4 -10
5 -10 20 0 15 -4 24 -10 20 -6 -4 -10 5 -10 20 0 14 -4 24 -9 21 -5 -3 -12 1
-15 10 -4 10 -2 13 7 9 6 -4 4 0 -5 8 -10 8 -15 17 -11 20 3 4 1 7 -6 7 -7 0
-9 5 -6 10 3 6 1 10 -5 10 -6 0 -10 8 -8 18 2 10 -2 16 -10 14 -7 -1 -12 3
-11 10 3 27 -1 49 -10 44 -4 -3 -14 13 -21 35 -8 23 -19 43 -26 46 -7 2 -11
12 -10 21 2 9 -4 24 -13 32 -9 8 -17 24 -19 34 -2 10 -10 25 -18 33 -8 8 -12
19 -9 24 4 5 1 9 -4 9 -6 0 -11 9 -11 21 0 11 -4 17 -10 14 -6 -4 -10 5 -10
20 0 15 -4 24 -10 20 -9 -5 -15 15 -11 38 0 4 -3 7 -9 7 -5 0 -10 9 -10 21 0
11 -4 17 -10 14 -5 -3 -10 3 -10 14 0 11 -5 23 -10 26 -6 4 -8 10 -5 15 3 4
-2 10 -10 14 -8 3 -15 12 -15 20 0 15 -32 78 -54 105 -9 12 -8 13 4 6 8 -4 5
3 -7 17 -13 13 -23 32 -23 42 0 9 -4 15 -8 12 -4 -2 -9 5 -9 16 -1 12 -7 24
-13 28 -7 4 -10 10 -8 13 1 4 -4 15 -13 25 -8 10 -14 23 -12 28 2 6 -3 17 -11
23 -8 7 -12 20 -9 29 3 9 3 14 -2 10 -9 -9 -47 61 -39 74 3 5 0 7 -8 6 -8 -2
-13 6 -12 19 1 13 -3 20 -7 17 -8 -5 -14 17 -10 39 0 4 -5 6 -11 5 -8 -2 -13
6 -12 19 1 13 -3 20 -7 17 -5 -3 -9 2 -9 11 0 9 -4 13 -10 10 -5 -3 -7 0 -4 8
3 8 -2 21 -10 30 -9 9 -16 25 -16 36 0 11 -5 23 -11 27 -6 3 -17 22 -25 40 -8
19 -19 34 -25 34 -6 0 -8 9 -4 21 5 15 4 19 -4 15 -9 -6 -16 7 -9 17 1 1 -5
13 -12 27 -8 14 -13 29 -12 33 1 5 -1 6 -6 3 -4 -2 -14 4 -21 16 -10 16 -10
19 1 13 10 -6 11 -5 1 6 -7 7 -13 22 -13 34 0 17 -2 18 -11 5 -9 -12 -10 -11
-6 8 3 12 2 22 -3 22 -4 0 -13 14 -20 30 -7 17 -16 30 -21 30 -5 0 -8 3 -8 8
3 19 -2 33 -11 27 -5 -3 -7 0 -4 8 3 8 0 18 -5 22 -6 3 -9 11 -6 16 4 5 1 9
-4 9 -6 0 -11 7 -11 16 0 9 -5 12 -12 8 -7 -4 -8 -3 -4 5 4 6 2 18 -4 26 -7 8
-9 15 -4 15 4 0 -2 10 -14 23 -12 12 -23 34 -26 47 -2 14 -9 24 -15 23 -6 -2
-8 4 -4 14 5 12 3 14 -7 8 -9 -5 -11 -4 -6 4 4 6 2 18 -4 26 -6 8 -9 19 -6 24
4 5 1 13 -5 17 -8 5 -9 3 -4 -6 5 -9 4 -11 -3 -6 -7 4 -12 15 -12 24 0 10 -12
35 -26 56 -15 21 -20 36 -13 32 8 -4 6 -1 -3 7 -10 8 -18 22 -18 31 0 11 -5
14 -12 10 -8 -5 -9 0 -6 14 4 14 1 25 -9 30 -8 5 -14 12 -14 15 3 21 0 27 -11
21 -7 -4 -10 -4 -6 1 4 4 2 17 -5 29 -6 11 -12 28 -12 36 -1 8 -6 14 -13 12
-7 -1 -11 1 -10 5 1 5 -3 18 -10 31 -7 12 -10 22 -6 22 4 0 -3 12 -17 27 -13
14 -17 22 -9 18 11 -6 10 -3 -2 12 -10 11 -18 27 -18 37 0 9 -4 14 -10 11 -9
-6 -14 10 -13 42 0 6 -5 9 -13 6 -9 -3 -11 2 -7 16 3 13 1 21 -6 21 -7 0 -10
4 -7 9 6 10 -18 34 -26 26 -3 -3 -3 5 -1 18 3 16 -1 29 -14 38 -10 8 -20 23
-21 34 -2 11 -8 21 -12 23 -5 2 -7 9 -4 16 3 8 -2 16 -10 19 -9 4 -16 18 -16
31 0 14 -8 31 -19 38 -10 7 -17 21 -15 31 2 18 2 19 -38 21 -15 1 -24 -2 -22
-6z"/>
</g>
</svg>
